<svg xmlns="http://www.w3.org/2000/svg" width="501.344" height="97.52" viewBox="0 0 501.344 97.52">
  <path id="Path_1" data-name="Path 1" d="M16.9,42.4V.9H0v73H16.9V55.7h1.7a8.533,8.533,0,0,0,3.1-.6l9.7,18.8H48.6V72.2L36,49.7c8.9-5.7,10.6-14.2,10.3-24H30.2c0,8.4-1.2,16.7-11.3,16.7Zm87.85,7.3c0-17-12.9-25.4-25.8-25.4-12.8,0-25.5,8.5-25.5,25.4,0,17,12.9,25.5,25.8,25.4C92.05,75,104.75,66.6,104.75,49.7Zm-34.3,0c0-7.1,4.4-10.6,8.8-10.5,4.3.1,8.6,3.6,8.6,10.5s-4.3,10.4-8.6,10.5C74.85,60.3,70.45,56.8,70.45,49.7ZM193.265,74V46.4c.3-12.1-2.8-21.7-16.8-21.7-6,0-12.3,3.1-15.4,8.6-2.3-5.2-6.9-8.6-15.3-8.6-5.5,0-11.2,2.6-13.9,7.7,0-9.6-14.4-8.8-20.5-6.7V35c4.2,0,4.1,1.8,4.1,5.5V74h16.9V46.7c0-5.5,3.7-8.4,7.2-8.5,3.6-.1,6.9,2.5,6.8,8.2V74h16.8V46.4c.1-5.3,3.3-8.1,6.6-8.2s6.4,2.6,6.3,8.2V74Zm90.82,0V46.4c.3-12.1-2.8-21.7-16.8-21.7-6,0-12.3,3.1-15.4,8.6-2.3-5.2-6.9-8.6-15.3-8.6-5.5,0-11.2,2.6-13.9,7.7,0-9.6-14.4-8.8-20.5-6.7V35c4.2,0,4.1,1.8,4.1,5.5V74h16.9V46.7c0-5.5,3.7-8.4,7.2-8.5,3.6-.1,6.9,2.5,6.8,8.2V74h16.8V46.4c.1-5.3,3.3-8.1,6.6-8.2s6.4,2.6,6.3,8.2V74Zm34.42-49.5c-12.4,0-25.6,7.7-25.6,25.2,0,16.4,11.8,25.6,27.9,25.6a48.748,48.748,0,0,0,19.3-4.5l-1.9-12.3c-3.4,1.6-10.6,3.1-16.3,3.1-5.8,0-11.2-1.4-12-7.7h29.9C344.105,36.9,336.9,24.8,318.505,24.5Zm-8.5,19.2c.8-4.1,4.8-6.2,8.4-6.2,3.5,0,7.7,1.8,7.2,6.2Zm58.381-11.5c-.8-9.3-13.8-8.2-20.5-6.6v9.3c4.1,0,4.3,1.8,4.3,5.5V74h16.7V49.8c0-7.3,4.9-10.9,10.6-11.2a13.283,13.283,0,0,1,8.3,2.4l3.4-13.8a15.764,15.764,0,0,0-9.8-2.9C375.886,24.3,370.286,26.9,368.386,32.2Zm75.891,12.4c-1.8-13.6-13-20.4-24.4-20.4-12.8,0-25.9,8.4-25.9,25.5,0,16.8,12.6,25.2,25.3,25.3,11.7.1,23.4-6.8,25.1-20.7h-16.2a7.966,7.966,0,0,1-8,6.1c-4.5-.1-9.2-3.8-9.2-10.7,0-7.1,4.9-10.7,9.6-10.6a7.723,7.723,0,0,1,7.6,5.5Zm57.067-16.9V25.8h-16.9l-9.1,28.3h-.4l-10.3-28.3h-18.2v1.9l20.5,46.3-1.3,4c-2.7,8-6.9,9.5-14.1,6.4l-1.5,10.9c16.4,7.5,24.6,1.2,31.3-15.9Z" transform="translate(0 -0.9)"/>
</svg>
